<?xml version="1.0" encoding="UTF-8"?>
<svg id="Calque_1" xmlns="http://www.w3.org/2000/svg" version="1.1" viewBox="0 0 433.7 99.21">
  <!-- Generator: Adobe Illustrator 29.1.0, SVG Export Plug-In . SVG Version: 2.1.0 Build 142)  -->
  <defs>
    <style>
      .st0 {
        fill: #b40024;
      }

      .st1 {
        fill: #fff;
      }
    </style>
  </defs>
  <rect class="st0" width="433.7" height="99.21"/>
  <g>
    <g>
      <g>
        <path class="st1" d="M84.42,28.98c-4-1.51-11.19-3.84-21.78-3.84-19.28,0-32.95,9.71-32.95,22.08,0,13.06,11.76,21.67,32.88,21.67,10.68,0,17.42-2.54,21.6-4.25.09-.03.14-.11.14-.22l-.07-10.29c0-.12-.08-.21-.21-.22l-.79-.04c-.11,0-.2.09-.22.17-2.51,9.43-10.54,13.01-20.46,13.01-13.6,0-23.04-7.59-23.04-20.03s8.2-19.96,23.11-19.96c10.65,0,17.26,4.51,19.84,11.8.03.1.11.17.21.16h.82c.11,0,.2-.1.21-.2l.85-9.6c.01-.09-.03-.18-.15-.24Z"/>
        <path class="st1" d="M198.07,66.89c-4.53-.57-7.37-4.5-10.47-9.89l-12.78-21.81c-2.9-4.99-6.37-10.71-6.37-10.71,0,0,0-.01-.02-.02-.04-.07-.09-.07-.21-.07-.04,0-.27,0-.39,0-.12,0-.15.04-.2.11-1.34,2.23-2.73,4.79-6.84,11.51l-11.35,18.39c-5.2,8.61-8.45,11.87-10.64,12.47-.12.05-.16.16-.16.22v.88c0,.13.11.23.24.23,1.52-.07,3.29-.13,6.73-.13s8.18.13,8.18.13c0,0,.22-.02.23-.25v-.85c0-.1-.06-.2-.19-.23-3.62-.84-4.87-2.66-4.87-4.95s1.37-4.92,3.21-8.2l1.4-2.49c.05-.09.11-.17.28-.17h21.02c.12,0,.22.04.3.17l2.77,4.69c1.85,3.14,3.28,5.4,3.28,7.45,0,1.88-1.45,2.97-5.14,3.53-.19.04-.19.23-.19.23v.85c0,.18.13.26.23.25,3.87,0,7.43-.14,10.91-.14s10.99.14,10.99.14c0,0,.21,0,.22-.24v-.83s.01-.21-.2-.25ZM173.59,49.14h-18.37c-.21,0-.28-.22-.2-.37l2.16-3.46c4.18-6.92,5.8-9.54,7.07-11.61.11-.16.3-.17.41-.01,1.14,1.9,3.24,5.24,7.01,11.62l2.1,3.46c.08.12.03.36-.19.37Z"/>
        <path class="st1" d="M394.01,47.02c-3.9-1.85-8.95-2.81-14.36-3.76l-4.24-.75c-9.09-1.5-12.99-3.49-12.99-8.27,0-4.37,4.99-7.32,14.77-7.32,10.49,0,15.35,4.82,17.11,10.95.04.12.11.19.26.19h.88c.12,0,.21-.1.23-.21l.87-9.56s0-.07-.06-.09c-5.45-1.7-11.11-3.06-19.21-3.06-12.71,0-22.49,3.97-22.49,11.97s7.73,10.53,18.19,12.44l4.03.68c9.36,1.71,16.55,2.87,16.55,8.89,0,5.54-7.59,7.93-17.3,7.93-9.17,0-17.67-3.65-20.46-13.01-.03-.1-.1-.18-.23-.18h-.83c-.11,0-.22.08-.24.23l-.93,10.55c0,.05.02.1.08.13,2.95,1.25,11.1,4.13,22.61,4.13,15.18,0,24.68-4.03,24.68-12.72,0-4.31-2.73-7.18-6.9-9.16Z"/>
        <path class="st1" d="M348.9,25.9c-2.8.07-5.77.13-8.29.13-2.79,0-5.39-.07-8.68-.13-.13,0-.27.08-.27.28v.85c0,.11.05.23.21.25,3.68.43,5.48,1.65,6.55,3.39,1.43,2.39,1.5,5.95,1.5,11.01v4.92c0,5.22.04,8.85.06,10.04,0,.21-.19.26-.32.16-.73-.71-3.09-2.96-8.36-7.4l-15.39-13.4c-6.16-5.23-10.46-9.06-11.27-9.97-.05-.06-.13-.07-.17-.08-2.04.06-4.98.07-6.73.07-2.55,0-3.39,0-7.43-.13-.12,0-.23.1-.23.23v.94c.02.19.19.22.19.22,2.31.46,4.74,1.04,6.98,3.3.09.09.08.2.08.21v21.48c0,5.06-.07,8.61-1.5,11-1.07,1.74-2.93,2.89-5.97,3.52-.12.03-.19.14-.19.23v.94c0,.12.1.24.25.24,2.75-.07,4.95-.13,7.48-.13,2.81,0,6.14.07,9.48.13.07,0,.22-.08.22-.25v-.91c0-.13-.07-.22-.19-.25-3.04-.62-5.03-1.78-6.1-3.52-1.44-2.39-1.5-5.95-1.5-11v-5.2c0-7.32-.1-13.09-.13-14.59,0-.19.21-.24.32-.15.05.05,5.9,5.33,12.93,11.32l14.37,12.44c3.97,3.42,14.63,12.85,14.63,12.85,0,0-.06-.06.17.15.12.1.38.03.38-.21,0-.11-.07-11.36-.07-15.94v-11.28c0-5.06.07-8.61,1.5-11.01,1.07-1.74,2.54-2.76,5.55-3.38.14-.04.19-.14.19-.25v-.9c0-.15-.1-.26-.25-.26Z"/>
        <path class="st1" d="M255.87,66.94c-4.51-1.13-6-4.24-7.62-8.02l-.41-1.03c-2.8-6.93-5.12-10.19-13.19-10.62-.27-.01-.25-.35-.04-.38,8.11-.47,15-3.82,15-11.08,0-8.75-10.19-9.84-21.6-9.84-2.19,0-4.44.07-6.7.07h-9.64c-2.87,0-7.58,0-11.12-.13-.13,0-.24.11-.23.23v.84c0,.14.08.22.2.24,2.54.36,3.99,1.24,4.86,2.64,1.02,1.71,1.16,3.96,1.16,7.04v20.3c0,3.08-.14,5.33-1.16,7.04-.87,1.4-2.31,2.28-4.86,2.64-.1.02-.2.1-.2.23v.84c0,.19.14.26.24.25,4.06-.13,7.27-.13,10.15-.13,3.08,0,9.75.13,9.75.13,0,0,.22,0,.24-.25v-.83c0-.11-.07-.21-.19-.24-2.55-.36-4-1.24-4.87-2.64-1.03-1.71-1.16-3.96-1.16-7.04v-9.15c0-.21.1-.28.24-.28,1.58,0,6.49-.07,8.23-.07,10.32,0,14.01,4.38,16.41,10.6,1.78,4.51,4.03,9.84,5.61,9.84h3.14c3.26,0,4.97,0,7.7.06.13,0,.22-.11.23-.25v-.8c0-.1-.07-.2-.18-.22ZM214.74,45.86c-.18,0-.26-.05-.26-.18v-17.62c0-.17.09-.24.24-.25,2.44-.07,10.07-.13,11.72-.13,7.11,0,14.22.75,14.22,8.13,0,9.78-8.68,10.05-16.41,10.05h-9.51Z"/>
      </g>
      <path class="st1" d="M98.54,57.19c0,3.08-.14,5.34-1.16,7.05-.87,1.4-2.32,2.28-4.86,2.64-.12.02-.2.11-.2.24v.83c0,.12.07.24.24.24,4.05-.13,7.26-.13,10.15-.13h22.9c1.33,0,2.65,0,3.89.02,1.23.01,2.37.03,3.35.05.97.02,1.78.04,2.35.05.32,0,.57.01.72.02.17,0,.21-.14.22-.16l3.23-9.98,1.02-3.15s.04-.24-.17-.29l-.37-.08-.44-.1c-.08-.02-.18,0-.26.11-.98,1.77-2.01,3.38-3.17,4.81-1.2,1.47-2.54,2.75-4.15,3.79-1.61,1.05-3.47,1.87-5.71,2.42-2.24.56-4.85.85-7.94.85h-1.71c-2.24,0-3.98-.17-5.34-.53-1.35-.36-2.32-.9-3.01-1.65-.69-.75-1.1-1.7-1.33-2.87-.23-1.17-.3-2.56-.3-4.18h0s0-20.3,0-20.3c0-3.08.14-5.33,1.16-7.04.87-1.41,2.33-2.29,4.89-2.64.09-.02.17-.1.17-.25v-.83c0-.14-.11-.24-.23-.23-3.72.13-6.67.13-9.75.13-2.88,0-6.09,0-10.15-.13-.17,0-.24.12-.24.24v.83c0,.13.08.22.2.24,2.54.36,3.99,1.24,4.86,2.64,1.02,1.71,1.16,3.96,1.16,7.04v20.3h0"/>
    </g>
    <path class="st1" d="M267.52,57.2c0,3.08-.14,5.33-1.16,7.04-.87,1.4-2.32,2.28-4.86,2.64-.12.02-.2.11-.2.24v.83c0,.12.07.24.24.24,4.05-.13,7.26-.13,10.15-.13h0c3.08,0,6.04,0,9.75.13.14,0,.23-.14.23-.24v-.82h0c0-.18-.11-.23-.21-.25-2.54-.36-3.99-1.24-4.85-2.64-1.02-1.71-1.16-3.96-1.16-7.04v-20.3c0-3.08.14-5.33,1.16-7.04.87-1.41,2.33-2.29,4.89-2.65.09-.02.17-.1.17-.25v-.83c0-.14-.11-.24-.23-.23-3.72.13-6.67.13-9.75.13-2.88,0-6.09,0-10.15-.13-.17,0-.24.12-.24.24v.83c0,.13.08.22.2.24,2.54.36,3.99,1.24,4.86,2.64,1.02,1.71,1.16,3.96,1.16,7.04v20.3"/>
  </g>
</svg>