<svg class="icon css-1lqhbrj" viewBox="0 0 708.66 144.23" xmlns="http://www.w3.org/2000/svg"><path d="M0,2H27.84L66.1,97.75,104.56,2h27.85L75.72,142.23h-19Z" class="css-t8g90j"></path><path d="M195.89,26V55.09H239v24H195.89v39.07H255v24H168.85V2H253V26Z" class="css-t8g90j"></path><path d="M324.88,80.13v62.1h-27V2h51.08c14.42,0,23.64,4,30.65,10.42a39.24,39.24,0,0,1,0,57.29,36,36,0,0,1-14,8.21L418,142.23H384.58L334.7,80.13Zm22.44-24c7.81,0,11.22-1.6,13.62-4.21a16.32,16.32,0,0,0,0-21.43c-2.4-2.61-5.81-4.41-13.62-4.41H324.88V56.09Z" class="css-t8g90j"></path><path d="M450.87,104.76c8,8.82,20.23,15.43,33.05,15.43,12,0,20.43-7.41,20.43-17.63,0-18-26-20.23-44.87-31.25-11-6.41-19.83-16-19.83-31.85,0-25,23-39.46,46.27-39.46,14.23,0,27.45,3.41,40.67,13.22l-14,20C507,28,497.54,24,488.33,24c-10.22,0-21.64,4.41-21.64,15.22,0,22.64,64.7,15.63,64.7,62.9,0,24.84-22.23,42.07-47.47,42.07-18.83,0-36.26-7.82-50.68-21Z" class="css-t8g90j"></path><path d="M635.54,0c43.27,0,73.12,32.25,73.12,72.11s-29.85,72.12-73.12,72.12S562.43,112,562.43,72.11,592.28,0,635.54,0Zm0,120.19c26.45,0,46.08-21.63,46.08-48.08S662,24,635.54,24s-46.07,21.63-46.07,48.07S609.1,120.19,635.54,120.19Z" class="css-t8g90j"></path></svg>